<?xml version="1.0" encoding="UTF-8" standalone="no"?>
        <svg 
    viewBox="5.56640625 -86.1328125 448.3175223214285 57.275390625"
    width="442.7511160714285"
    height="143.408203125"
   xmlns="http://www.w3.org/2000/svg"
   xmlns:svg="http://www.w3.org/2000/svg">
   <path d="M6.74 6.45L5.57 2.27L62.55 2.27L62.55-54.57L17.87-54.57L16.63-58.81L62.55-58.81L62.55-108.91L12.60-108.91L11.43-113.09L105.03-113.09L117.11-128.54Q117.11-128.54 119.35-126.86Q121.58-125.17 125.02-122.50Q128.47-119.82 132.20-116.86Q135.94-113.89 139.01-111.33L139.01-111.33Q138.43-108.91 134.69-108.91L134.69-108.91L86.57-108.91L86.57-58.81L101.07-58.81L112.79-73.54Q112.79-73.54 114.92-71.92Q117.04-70.31 120.34-67.79Q123.63-65.26 127.22-62.40Q130.81-59.55 133.81-56.98L133.81-56.98Q133.15-54.57 129.42-54.57L129.42-54.57L86.57-54.57L86.57 2.27L111.04 2.27L123.49-13.48Q123.49-13.48 125.72-11.79Q127.95-10.11 131.47-7.40Q134.99-4.69 138.83-1.65Q142.68 1.39 145.83 4.03L145.83 4.03Q145.17 6.45 141.28 6.45L141.28 6.45L6.74 6.45ZM246.31-38.09L204.13-38.09L204.13-23.73L246.31-23.73L246.31-38.09ZM204.13-56.10L204.13-42.33L246.31-42.33L246.31-56.10L204.13-56.10ZM240.89-98.36L241.92-99.32Q255.62-98.51 264.18-95.14Q272.75-91.77 277.00-87.19Q281.25-82.62 281.98-78.00Q282.71-73.39 280.70-69.95Q278.69-66.50 274.62-65.37Q270.56-64.23 265.36-66.72L265.36-66.72Q263.67-70.46 261.25-74.34Q258.84-78.22 256.05-81.88L256.05-81.88Q243.24-78.96 225.73-75.70Q208.23-72.44 184.35-68.41L184.35-68.41L205.37-60.28L244.78-60.28L254.22-70.83L273.93-55.81Q273.19-54.93 271.80-54.02Q270.41-53.10 268.07-52.66L268.07-52.66L268.07-6.88Q268.07-0.66 266.27 3.77Q264.48 8.20 258.84 10.84Q253.20 13.48 241.63 14.43L241.63 14.43Q241.33 9.89 240.60 6.63Q239.87 3.37 238.04 1.17L238.04 1.17Q236.28-0.81 233.61-2.45Q230.93-4.10 225-5.13L225-5.13L225-6.88Q225-6.88 227.27-6.74Q229.54-6.59 232.80-6.45Q236.06-6.30 239.06-6.15Q242.07-6.01 243.46-6.01L243.46-6.01Q245.14-6.01 245.73-6.74Q246.31-7.47 246.31-8.86L246.31-8.86L246.31-19.48L204.13-19.48L204.13 6.88Q204.13 7.98 201.49 9.59Q198.85 11.21 194.68 12.49Q190.50 13.77 186.04 13.77L186.04 13.77L182.89 13.77L182.89-68.12L179.08-67.53Q177.17-64.60 174.32-64.38L174.32-64.38L165.01-86.28L195.92-86.13Q197.02-90.38 198.08-95.00Q199.15-99.61 199.95-103.64L199.95-103.64L158.13-103.64L156.88-107.89L213.87-107.89L213.87-128.25L241.04-126.27Q240.82-124.73 239.79-123.63Q238.77-122.53 235.62-122.09L235.62-122.09L235.62-107.89L265.21-107.89L275.54-121.07Q275.54-121.07 277.48-119.60Q279.42-118.14 282.39-115.83Q285.35-113.53 288.57-110.93Q291.80-108.33 294.43-106.05L294.43-106.05Q293.77-103.64 290.26-103.64L290.26-103.64L227.42-103.64Q223.10-99.24 218.08-94.70Q213.06-90.16 207.93-86.28L207.93-86.28L252.17-86.72Q246.46-93.31 240.89-98.36L240.89-98.36ZM321.90-63.43L321.90-84.89L321.90-89.87L321.46-89.87L318.31-89.87L318.31-123.93L344.68-121.80Q344.46-120.34 343.40-119.24Q342.33-118.14 339.18-117.63L339.18-117.63L339.18-101.07L363.43-101.07L363.43-128.98L390.31-127.08Q390.09-125.46 388.99-124.37Q387.89-123.27 384.74-122.68L384.74-122.68L384.74-101.07L410.08-101.07L410.08-123.93L437.11-121.80Q436.89-120.34 435.83-119.20Q434.77-118.07 431.69-117.63L431.69-117.63L431.69-96.17Q431.69-95.51 428.03-94.30Q424.37-93.09 419.53-92.43L419.53-92.43L433.96-81.01Q432.42-79.03 427.81-78.30L427.81-78.30Q427.37-71.85 427.29-64.20Q427.22-56.54 427.70-48.74Q428.17-40.94 429.31-33.98Q430.44-27.03 432.28-21.94Q434.11-16.85 436.82-14.72L436.82-14.72Q438.72-13.18 439.82-15.75L439.82-15.75Q441.14-18.82 442.35-22.63Q443.55-26.44 444.58-30.62L444.58-30.62L446.12-30.47L444.87-7.32Q447.80-1.25 448.24 3.30Q448.68 7.84 446.56 10.18L446.56 10.18Q443.48 13.33 439.82 13.59Q436.16 13.84 432.50 12.12Q428.83 10.40 425.83 7.62L425.83 7.62Q419.90 2.78 416.16-5.38Q412.43-13.55 410.41-24.02Q408.40-34.50 407.52-46.36L407.52-46.36Q406.64-45.48 404.52-44.97L404.52-44.97L404.52-24.32Q404.44-23.73 402.06-22.63Q399.68-21.53 396.39-20.65Q393.09-19.78 390.31-19.78L390.31-19.78L387.30-19.78L387.30-23.73L382.98-23.73L382.98-8.72L393.31-8.86Q392.43-11.13 391.41-13.29Q390.38-15.45 389.43-17.29L389.43-17.29L390.75-18.02Q400.93-15.45 406.46-11.57Q411.99-7.69 413.85-3.44Q415.72 0.81 414.84 4.47Q413.96 8.13 411.15 10.33Q408.33 12.52 404.48 12.38Q400.63 12.23 396.75 8.72L396.75 8.72Q396.75 5.57 396.24 2.34Q395.73-0.88 394.78-4.03L394.78-4.03Q379.17 1.46 348.78 10.03L348.78 10.03Q347.97 11.50 346.73 12.30Q345.48 13.11 344.24 13.33L344.24 13.33L333.76-8.72Q338.82-8.57 346.98-8.50Q355.15-8.42 365.26-8.57L365.26-8.57L365.26-23.73L360.72-23.73L360.72-19.92Q360.72-19.19 358.59-17.98Q356.47-16.77 353.17-15.82Q349.88-14.87 346.51-14.87L346.51-14.87L344.09-14.87L344.09-57.57L361.52-50.83L365.26-50.83L365.26-61.38Q359.55-61.16 353.76-61.12Q347.97-61.08 342.63-61.23L342.63-61.23L342.11-63.13Q350.10-65.26 358.96-68.30Q367.82-71.34 375.84-74.63Q383.86-77.93 389.28-80.71L389.28-80.71L341.53-80.71L341.53-63.43Q341.53-55.08 340.47-44.86Q339.40-34.64 335.78-23.95Q332.15-13.26 324.61-3.41Q317.07 6.45 304.03 14.14L304.03 14.14L302.86 12.89Q311.50 1.25 315.53-11.94Q319.56-25.12 320.73-38.42Q321.90-51.71 321.90-63.43L321.90-63.43ZM410.08-96.90L339.18-96.90L339.18-94.19Q339.18-93.53 335.96-92.32Q332.74-91.11 328.34-90.45L328.34-90.45L344.53-84.89L404.88-84.89L411.33-91.92L410.08-91.92L410.08-96.90ZM406.64-80.71L390.16-80.71L406.64-63.57L406.64-80.71ZM360.72-46.66L360.72-27.91L367.24-27.91L367.24-46.66L360.72-46.66ZM381.01-27.91L387.30-27.91L387.30-46.66L381.01-46.66L381.01-27.91ZM382.98-50.83L386.13-50.83L393.46-58.52L407.37-48.12Q407.15-51.78 406.97-55.48Q406.79-59.18 406.79-62.99L406.79-62.99Q403.56-60.94 397.05-63.72L397.05-63.72Q391.04-62.84 382.98-62.40L382.98-62.40L382.98-50.83Z"/>
    </svg>
        