<svg width="296" height="296" version="1.1" xmlns="http://www.w3.org/2000/svg" xmlns:xlink="http://www.w3.org/1999/xlink"><path d="M206.90 47.21L210.16 51.36Q209.57 54.91 203.35 64.08L203.35 64.08Q201.28 67.34 200.10 69.71L200.10 69.71L194.18 86.88L190.62 92.50L186.48 96.05Q184.11 96.05 182.34 92.50L182.34 92.50Q181.74 91.32 181.74 91.02L181.74 91.02Q181.74 84.80 179.08 84.80L179.08 84.80Q160.73 84.80 121.66 92.20L121.66 92.20Q93.83 97.53 84.36 101.68L84.36 101.68Q77.26 104.93 71.93 109.37L71.93 109.37Q67.19 109.37 61.86 103.16L61.86 103.16Q60.98 102.27 60.68 101.97L60.68 101.97Q60.68 98.12 65.71 90.43L65.71 90.43Q68.08 86.58 68.97 83.92L68.97 83.92Q71.34 72.96 69.56 64.38L69.56 64.38Q68.67 59.35 66.30 54.91L66.30 54.91Q66.30 52.84 68.38 51.95L68.38 51.95Q75.48 52.24 81.70 59.05L81.70 59.05Q83.18 60.83 84.06 62.31L84.06 62.31Q85.54 65.86 81.99 82.44L81.99 82.44Q81.10 86.88 81.10 88.95L81.10 88.95Q81.70 90.43 87.62 90.43L87.62 90.43Q88.21 90.43 98.27 87.47L98.27 87.47Q99.16 87.47 99.75 87.17L99.75 87.17Q108.04 85.40 124.02 83.03L124.02 83.03Q125.80 64.08 124.32 51.06L124.32 51.06Q124.02 46.32 122.84 42.48L122.84 42.48L120.77 34.19Q119.88 24.42 136.46 34.19L136.46 34.19Q142.67 38.04 145.04 40.40L145.04 40.40Q139.42 58.46 134.98 81.25L134.98 81.25L181.45 76.52Q190.62 63.20 190.62 50.17L190.62 50.17L189.14 39.81Q190.03 27.97 206.90 47.21L206.90 47.21ZM262.26 280.16L262.26 280.16Q262.55 283.42 261.66 285.79L261.66 285.79Q261.07 287.86 259 289.34L259 289.34Q189.14 296.15 178.49 218.00L178.49 218.00Q174.64 189.29 179.38 128.91L179.38 128.91Q179.67 123.88 179.97 120.92L179.97 120.92Q178.78 119.44 175.53 119.44L175.53 119.44Q169.02 119.44 145.93 124.76L145.93 124.76L140.01 125.95Q100.05 133.35 74.59 137.49L74.59 137.49L73.11 139.86Q70.74 191.96 63.05 216.82L63.05 216.82Q50.32 257.37 16.58 276.32L16.58 276.32Q12.43 277.20 10.06 276.61L10.06 276.61L10.06 274.84Q51.21 240.80 57.72 185.15L57.72 185.15Q59.20 173.01 59.20 159.10L59.20 159.10Q59.20 140.75 54.76 130.68L54.76 130.68L52.10 124.17Q55.06 120.92 71.04 128.02L71.04 128.02Q71.93 128.32 72.52 128.61L72.52 128.61Q141.78 121.21 183.52 103.45L183.52 103.45Q201.28 103.75 211.05 116.77L211.05 116.77L211.05 118.55Q190.33 139.86 190.33 185.74L190.33 185.74Q190.33 200.54 190.92 207.94L190.92 207.94Q193.29 234.88 208.09 253.82L208.09 253.82Q216.08 264.48 226.14 268.32L226.14 268.32Q231.18 270.40 235.91 269.80L235.91 269.80Q237.98 269.51 239.76 268.62L239.76 268.62Q241.54 266.55 250.12 246.42L250.12 246.42Q253.38 237.84 255.15 237.24L255.15 237.24L256.93 240.20Q257.52 267.73 262.26 280.16ZM168.42 270.69L167.24 270.10Q163.98 266.55 153.33 250.56L153.33 250.56Q152.44 249.08 151.55 247.90L151.55 247.90L97.68 268.62L84.66 274.24Q81.99 275.13 79.62 275.13L79.62 275.13L63.94 263.59L63.64 258.56Q65.42 256.48 76.07 256.78L76.07 256.78Q78.44 256.78 79.92 256.48L79.92 256.48L112.78 249.97L113.37 221.56L97.68 223.63Q96.20 227.48 95.61 228.36L95.61 228.36Q91.46 227.48 89.39 223.04L89.39 223.04Q87.91 219.19 82.29 198.47L82.29 198.47Q80.22 190.77 77.85 185.44L77.85 185.44Q77.85 183.08 79.03 182.48L79.03 182.48Q87.02 186.33 101.82 183.37L101.82 183.37Q108.93 181.89 112.78 181.60L112.78 181.60L112.78 170.05Q112.18 164.72 110.41 161.47L110.41 161.47Q108.34 161.76 84.36 166.50L84.36 166.50L84.36 164.13Q110.70 152.29 113.66 150.81L113.66 150.81Q124.02 145.19 128.17 140.16L128.17 140.16L130.24 135.42Q130.54 135.42 131.13 135.12L131.13 135.12Q142.97 135.12 153.33 147.56L153.33 147.56Q151.85 150.81 142.38 152.00L142.38 152.00Q140.30 152.29 139.12 152.59L139.12 152.59Q124.91 157.32 122.84 158.21L122.84 158.21Q128.17 161.47 126.69 171.83L126.69 171.83Q125.80 176.27 125.80 178.04L125.80 178.04Q127.87 177.75 142.97 173.31L142.97 173.31Q148.89 171.53 153.33 171.53L153.33 171.53L166.65 178.64Q169.61 180.71 171.68 183.08L171.68 183.08Q171.68 185.74 163.39 195.80L163.39 195.80Q153.62 207.94 158.36 212.08L158.36 212.08Q159.25 212.97 160.43 213.56L160.43 213.56L161.02 215.34L159.25 216.82Q143.86 217.41 124.62 219.78L124.62 219.78L124.62 247.60L147.41 241.98Q147.41 241.09 144.15 235.47L144.15 235.47Q142.08 231.32 145.34 228.66L145.34 228.66Q160.43 235.76 169.90 247.60L169.90 247.60Q175.53 254.41 175.53 260.33L175.53 260.33Q175.53 268.32 171.38 270.40L171.38 270.40L168.42 270.69ZM147.70 187.81L147.70 187.81L147.11 184.56Q137.94 184.56 125.80 186.63L125.80 186.63L125.50 210.60L143.86 207.05Q147.11 196.99 147.70 187.81ZM112.48 212.68L112.78 212.68L112.78 189.59L94.72 193.14L97.68 214.75L112.48 212.68Z" stroke="#000" fill="black" /></svg>