<svg width="296" height="296" version="1.1" xmlns="http://www.w3.org/2000/svg" xmlns:xlink="http://www.w3.org/1999/xlink"><path d="M251.60 163.54L251.60 163.54Q250.12 165.61 245.68 165.61L245.68 165.61Q239.76 165.61 206.90 162.36L206.90 162.36L187.96 161.17Q149.48 161.17 86.43 169.16L86.43 169.16Q69.56 171.24 59.20 174.49L59.20 174.49L45.88 178.34Q36.70 179.52 26.94 171.24L26.94 171.24Q22.79 167.98 20.72 164.13L20.72 164.13Q20.72 160.88 22.50 159.40L22.50 159.40Q39.96 160.28 83.47 154.96L83.47 154.96Q107.74 152.29 122.84 152.29L122.84 152.29L124.02 152.29L124.91 93.68L98.27 95.46Q84.95 94.87 78.74 88.06L78.74 88.06Q78.74 85.10 82.58 84.51L82.58 84.51L95.90 83.62L124.62 79.77L124.62 36.56Q124.62 27.97 118.99 21.46L118.99 21.46Q95.02 23.83 85.84 21.46L85.84 21.46Q77.26 19.39 71.63 13.76L71.63 13.76Q71.63 12.28 74.89 10.21L74.89 10.21Q109.22 8.44 167.83-4.88L167.83-4.88Q172.57-6.07 178.19-6.07L178.19-6.07Q191.22-6.07 198.02 1.92L198.02 1.92Q198.32 4.59 196.84 6.36L196.84 6.36Q195.95 7.25 194.77 7.84L194.77 7.84Q190.03 10.51 152.14 16.13L152.14 16.13Q140.90 17.91 136.46 18.80L136.46 18.80Q143.86 22.64 143.86 30.64L143.86 30.64L142.38 46.62L141.49 75.33L141.49 75.63L168.42 70.00Q183.82 68.23 190.03 77.11L190.03 77.11Q189.44 84.51 150.66 89.24L150.66 89.24Q143.56 90.13 141.78 90.72L141.78 90.72L140.90 92.20L139.12 150.52Q173.46 148.44 196.25 145.19L196.25 145.19L221.70 140.75L222.89 140.75Q230.29 140.16 242.42 150.22L242.42 150.22Q251.60 157.92 251.60 163.54Z" stroke="#000" fill="black" /></svg>