<svg width="296" height="296" version="1.1" xmlns="http://www.w3.org/2000/svg" xmlns:xlink="http://www.w3.org/1999/xlink"><path d="M150.66 39.28L150.66 39.28Q152.44 49.64 152.44 50.23L152.44 50.23L151.26 54.08L149.78 55.85Q141.78 55.85 132.61 47.27L132.61 47.27Q125.21 40.16 120.77 38.39L120.77 38.39Q117.81 34.54 117.81 30.40L117.81 30.40L119.29 29.21Q137.64 30.40 143.56 33.36L143.56 33.36Q148 35.43 150.66 39.28ZM249.23 70.06L249.23 70.06Q249.23 74.80 245.98 75.68L245.98 75.68Q243.90 75.98 211.34 75.98L211.34 75.98L207.79 76.28Q159.25 76.57 127.58 80.72L127.58 80.72Q132.31 82.49 136.16 86.34L136.16 86.34Q136.16 90.19 132.02 93.15L132.02 93.15Q124.02 99.36 100.64 120.68L100.64 120.68L100.64 121.56Q105.38 122.16 147.70 114.46L147.70 114.46Q167.54 110.61 169.31 109.72L169.31 109.72L160.73 101.14Q156.88 96.70 158.95 93.15L158.95 93.15L181.45 101.73Q194.47 107.95 198.02 114.76L198.02 114.76Q200.69 120.08 200.69 132.22L200.69 132.22Q196.84 141.40 181.15 123.34L181.15 123.34Q175.23 116.53 174.34 115.64L174.34 115.64Q141.19 119.79 100.64 137.25L100.64 137.25Q89.39 141.99 81.10 146.72L81.10 146.72Q76.07 146.72 72.22 141.69L72.22 141.69Q69.56 134.88 69.56 127.78L69.56 127.78Q71.34 126.89 86.14 118.90L86.14 118.90Q93.24 115.35 97.38 111.20L97.38 111.20Q111 97.88 113.37 87.52L113.37 87.52Q113.96 85.16 114.26 82.49L114.26 82.49Q90.87 84.56 64.23 90.19L64.23 90.19Q44.99 95.22 40.85 95.52L40.85 95.52Q34.34 96.11 28.12 91.67L28.12 91.67Q25.16 89.30 23.09 86.64L23.09 86.64Q23.09 84.56 24.86 83.97L24.86 83.97Q27.53 83.38 54.76 80.72L54.76 80.72Q55.94 80.72 56.83 80.42L56.83 80.42L123.73 72.13Q150.37 68.88 199.80 60.88L199.80 60.88L217.86 57.63L220.52 57.63Q240.35 57.63 249.23 70.06ZM141.78 263.94L141.78 263.94L141.19 262.16L142.97 261.28L158.06 262.16Q164.58 261.57 166.94 257.13L166.94 257.13Q169.90 218.95 167.54 183.13L167.54 183.13Q166.65 168.92 164.87 163.00L164.87 163.00Q163.39 158.56 160.43 156.79L160.43 156.79Q146.82 156.79 111.59 163.60L111.59 163.60Q108.93 163.89 106.86 164.48L106.86 164.48L105.97 165.37L103.90 184.91Q109.52 184.91 128.17 180.47L128.17 180.47Q136.75 178.10 142.67 178.10L142.67 178.10Q150.96 178.10 154.81 181.36L154.81 181.36L155.99 182.84Q155.99 184.02 154.81 185.20L154.81 185.20Q126.98 192.31 103.90 192.31L103.90 192.31Q102.71 195.86 101.82 212.44L101.82 212.44Q101.53 214.51 101.53 216.28L101.53 216.28L137.05 210.36Q152.44 208.88 157.47 214.80L157.47 214.80Q157.47 218.06 154.81 219.24L154.81 219.24Q148.30 222.50 105.97 224.28L105.97 224.28L100.94 224.57L98.57 249.44Q96.20 263.05 88.21 270.16L88.21 270.16Q84.36 270.16 81.40 264.83L81.40 264.83Q78.74 260.68 78.74 255.06L78.74 255.06Q78.74 250.03 84.06 235.82L84.06 235.82Q85.84 231.97 86.43 229.01L86.43 229.01Q96.20 189.35 89.69 164.48L89.69 164.48Q88.21 159.45 86.14 154.72L86.14 154.72Q87.02 147.91 98.86 154.42L98.86 154.42Q101.82 156.20 103.30 157.38L103.30 157.38L141.49 149.09Q152.44 146.13 160.73 141.69L160.73 141.69Q172.27 142.88 181.74 148.50L181.74 148.50Q184.11 149.98 185.30 151.46L185.30 151.46Q187.66 154.42 183.82 164.48L183.82 164.48Q181.74 168.92 181.74 171.00L181.74 171.00L181.74 183.13L187.66 251.21Q188.26 258.32 182.04 272.52L182.04 272.52Q174.34 290.28 166.94 285.25L166.94 285.25Q164.28 283.18 148.59 269.56L148.59 269.56Q144.45 266.31 141.78 263.94Z" stroke="#000" fill="black" /></svg>